<?xml version="1.0" encoding="UTF-8"?>
<!DOCTYPE svg PUBLIC "-//W3C//DTD SVG 1.1//EN" "http://www.w3.org/Graphics/SVG/1.1/DTD/svg11.dtd">
<!-- Creator: CorelDRAW (Versión de evaluación) -->
<svg xmlns="http://www.w3.org/2000/svg" xml:space="preserve" width="297mm" height="169.333mm" version="1.1" shape-rendering="geometricPrecision" text-rendering="geometricPrecision" image-rendering="optimizeQuality" fill-rule="evenodd" clip-rule="evenodd"
viewBox="0 0 29700 16933.32"
 xmlns:xlink="http://www.w3.org/1999/xlink"
 xmlns:xodm="http://www.corel.com/coreldraw/odm/2003">
 <g id="Capa_x0020_1">
  <metadata id="CorelCorpID_0Corel-Layer"/>
  <g id="_2456117236112">
   <g>
    <path fill="#373435" d="M15371.15 9713.58c-126.76,68.35 -262.02,127.23 -394.99,182.26 -193.4,80.03 -390.07,153.43 -587.08,224.05 -573.78,205.67 -1157.72,390.63 -1740.34,569.63 -477.79,541.23 -1026.94,1008.71 -1649.87,1375.32 -388.57,228.69 -979.23,539.05 -1441.61,539.05 -173.92,0 -454.73,-27.46 -454.73,-259.03 0,-362.89 662.35,-771 927.8,-930.26 705.66,-423.4 1532.72,-697 2329.78,-888.31 765.71,-911.82 1294.14,-1973.34 1294.14,-3183.97 0,-216.8 -17.08,-503.56 -115.53,-700.9 -68.55,-137.4 -172.08,-221.49 -329.95,-221.49 -601.63,0 -1536.65,1118.79 -1878.67,1535.75 -196.63,239.71 -378.28,494.57 -551.14,751.82 -223.71,332.93 -435.01,675.01 -639.25,1020.18 -201.09,339.84 -405.83,677.94 -617.7,1011.19 -155.41,244.44 -315.01,487.97 -483.98,723.3l-0.46 0.63 -0.49 0.62c-26.59,33.22 -67.91,44.58 -108.95,44.58 -44.44,0 -85.27,-16.91 -119.72,-43.87 -37.92,-28.45 -62.49,-65.05 -62.49,-113.7 0,-25.77 4.45,-55.03 20.73,-75.98 260.03,-504.16 537.53,-1000.83 819.67,-1492.89 296.49,-517.08 585.67,-1039.6 857.48,-1570.12 246.08,-480.3 460.53,-976.6 647.9,-1482.37l53.23 -150.5 -109.48 75.27c-195.73,134.57 -391.72,274.02 -576.54,423.34 -170.13,137.45 -331.55,288.32 -486.16,442.91 -159.49,159.49 -298.79,341.79 -392.53,547.84 -85.53,188 -129.22,384.06 -129.22,590.62 0,469.35 -637.82,907.72 -1051.64,995.65 -184.58,39.23 -387.55,52.78 -575.84,61.38 -264.65,12.08 -531.01,11.85 -795.86,7.51 -648.91,-10.62 -1299.89,-47.08 -1947.57,-87.92 -635.51,-40.07 -1270.47,-87.23 -1905.78,-130.1 -247.43,-16.7 -495.1,-32.94 -742.8,-45.27 -164.33,-8.18 -333.4,-16.7 -497.9,-13.12 -50.61,1.1 -107.78,-5.39 -158.51,-9.3 -74.79,-5.77 -149.71,-11.21 -224.71,-13.14 -43.38,-1.12 -272.23,-5.26 -287.56,50.13 -17.86,64.57 148.59,223.94 193.77,265.82 50.18,46.52 102.5,90.96 155.74,133.94 17.19,13.87 34.5,27.58 51.89,41.2 4.86,3.8 9.72,7.58 14.56,11.4 1.42,1.11 2.83,2.23 4.22,3.37 21.83,18.03 11.79,54.14 -18.02,54.14 -23.27,0 -178.37,-84.57 -202.19,-97.65 -111.49,-61.24 -230.49,-133.44 -327.93,-215.39 -66.95,-56.31 -176.38,-161.08 -137.32,-259.51 49.23,-124.06 311.76,-145.44 421,-153.09 175.04,-12.25 360.76,-6.92 536.19,-2.38 274.67,7.11 549.52,19.93 823.93,33.85 706.11,35.81 1411.98,80.66 2117.77,122.41 692.88,40.99 1387.21,82.01 2080.88,105.91 258.47,8.9 518.32,15.94 776.95,13.23 92.69,-0.96 185.8,-3.15 278.32,-9.11 61.22,-3.94 126.29,-9.13 186.46,-21.4 425.43,-86.74 874.78,-380.45 874.78,-859.95 0,-855.9 1166.65,-1738.13 1788.56,-2172.89 109.18,-76.32 362.33,-251.84 499.91,-251.84 138.84,0 166.26,138 166.26,250.33 0,122.75 -66.93,315.46 -107.52,430.88 -93.49,265.83 -206.21,529.47 -319.84,787.44l-72.25 158.6 80.36 -103.38c312.12,-426.9 671.26,-815.62 1080.51,-1151.76 281.68,-231.36 670.36,-490.98 1049.69,-490.98 672.43,0 735.95,870.48 735.95,1363.63 0,1117.65 -450.34,2105.85 -1135.52,2966.83 515.15,-156.59 1031.09,-318.75 1538.35,-498.55 182.13,-64.56 364.02,-131.72 542.75,-205.23 120.98,-49.75 244.68,-103.21 359.66,-165.76l0.93 -0.48c15.04,-7.52 56.19,-29.26 72.84,-29.26 54.64,0 82.18,37.2 82.18,89.44 0,50.63 -43.21,78.73 -85.5,95.4zm2386.76 1990.97c-399.94,726.15 -841.25,1435.41 -1340.41,2097.81 -102.77,136.38 -208.58,271.09 -319.61,400.85 -85.17,99.54 -174.42,197.79 -269.75,287.72 -94.82,89.45 -263.95,236.62 -402.93,236.62 -154.49,0 -208.3,-111.16 -208.3,-250.35 0,-1164.67 1231.25,-2179.28 2097.3,-2781.99 225.1,-418.43 435.15,-845.07 633,-1277.08 -374.18,375.08 -827.03,597.02 -1375.37,597.02 -294.33,0 -572.43,-80.12 -762.64,-315.58 -190.79,-236.18 -251.64,-537.74 -251.64,-834.96 0,-403.27 107.61,-804.67 260.29,-1175.44 174.75,-424.37 407.4,-819.65 688.22,-1182.56 293.96,-379.89 658.63,-685.76 1074.2,-925.23 412.22,-237.54 858.58,-373.65 1335.56,-373.65 379.9,0 608.39,171.41 608.39,564.9 0,122.79 -51.71,271.89 -96.33,385 -43.15,109.37 -120.53,256.73 -256.93,256.73 -52.3,0 -97.5,-18.67 -135.23,-54.69l-0.99 -0.99c-36.02,-37.73 -54.69,-82.93 -54.69,-135.23 0,-39.25 73.77,-192.63 91.24,-230.11 45.37,-97.39 87.06,-213.44 87.06,-322.19 0,-180.13 -119.58,-233.82 -284.56,-233.82 -338.42,0 -662.18,75.28 -968.64,218.95 -302.52,141.83 -573.43,333.75 -801.07,578.88 -227.39,244.88 -424.43,514.75 -590.28,804.81 -162.02,283.37 -291.7,583.24 -379.85,897.75 -78.17,278.86 -126.45,568.66 -126.45,858.76 0,261.34 55.54,523.7 226.44,728.77 171.73,206.08 426.69,268.99 685.79,268.99 227.23,0 453.04,-131.32 628.33,-264.94 260.23,-198.35 475.05,-457.03 653.95,-729.4 76.83,-190.71 150.9,-386.9 207.9,-584.51 32.29,-111.96 68.58,-252.72 68.58,-369.84 0,-85.86 22.09,-166.64 74.2,-235.55 41.64,-55.05 96.72,-100.32 168.9,-100.32 148.46,0 173.5,159.69 173.5,276.43 0,357.48 -133.09,773.1 -258.71,1104.36 -95.84,252.73 -205.74,500.94 -322.12,744.83 -127.53,267.22 -263.73,530.57 -404.99,790.85 465.13,-230.4 934.95,-451.64 1407.25,-666.9 529.29,-241.24 1081.54,-441.13 1594.24,-716.68 864.25,-464.49 1862.23,-489.36 2820.39,-466.07 575.49,13.98 1150.33,46.41 1726.02,59.09 661.96,14.58 1320.82,4.1 1980.73,-54.29 72.18,-6.39 146.66,-11.53 219.14,-7.28 42.34,2.49 83.75,8.23 126.33,9.28 82.64,2.05 169.61,-6.53 251.66,-15.22 199.52,-21.14 399.68,-51.04 598.01,-81.17 56.22,-8.54 76.54,42.8 76.54,89.09 0,156.11 -176.95,168.89 -295.12,178.62 -127.57,10.51 -258.01,12.66 -386,16.74 -198.62,6.33 -396.85,14.25 -595.23,26.25 -900.77,54.48 -1809.45,17.62 -2709.99,-23.62 -408.33,-18.7 -817.03,-39.27 -1225.68,-49.07 -336.93,-8.09 -681.1,-10.57 -1017.14,17.21 -315.29,26.06 -665.38,132.08 -963.74,237.58 -199.47,70.52 -389.98,149.22 -584.38,231.44 -558.58,236.25 -1112.94,482.42 -1663.21,737.44 -510.9,236.78 -1016.44,486.92 -1511.18,755.96zm-5600.43 -930.5c-649.12,162.12 -1328.65,387.43 -1902.08,729.71 -197.78,118.05 -753.66,458.77 -753.66,730.93 0,141.89 220.27,148.3 317.89,148.3 335.43,0 800.97,-286.22 1070.54,-466.08 475.42,-317.19 895.25,-710.27 1267.31,-1142.86zm4939.98 1317.18c-446.9,353.78 -856.18,756.3 -1197.37,1213.8 -233.33,312.88 -521.7,766.99 -521.7,1172.17 0,24.8 2.35,45.39 30.87,45.39 171.39,0 586.25,-612.46 670.95,-737.7 367.92,-544.02 702.28,-1116.67 1017.25,-1693.66z"/>
   </g>
   <path fill="#373435" d="M12240.45 10722.76c-820.46,198.61 -1487.28,449.37 -2000.43,755.24 -511.71,305.87 -768.28,558.1 -768.28,756.69 0,118.87 115.96,178.3 347.89,178.3 255.13,0 617.52,-158 1087.19,-471.12 471.13,-314.57 914.7,-720.44 1333.63,-1219.11zm-933.54 -2786.11c-340.65,413.14 -737.84,1004.57 -1193.02,1775.75 -456.61,769.73 -823.36,1346.67 -1100.23,1732.27 -17.4,21.74 -46.39,33.33 -85.53,33.33 -33.34,0 -68.13,-11.59 -101.47,-37.68 -34.79,-26.1 -50.74,-55.09 -50.74,-89.89 0,-27.54 5.8,-47.82 15.95,-59.43 216,-418.93 488.52,-916.13 820.48,-1494.52 330.5,-576.95 617.52,-1101.69 858.15,-1571.36 240.63,-469.67 456.62,-965.43 649.41,-1485.84l84.08 -237.72 -185.54 127.56c-237.74,163.81 -430.54,305.86 -578.39,424.72 -146.41,118.87 -310.21,266.74 -488.52,445.04 -178.3,178.29 -311.65,363.85 -398.63,556.63 -88.43,192.8 -131.91,392.85 -131.91,603.04 0,463.01 -643.8,884.7 -1027.88,966.31 -1156.15,245.67 -5520.17,-228.63 -6460.16,-208.17 -121.69,2.64 -663.42,-79.06 -699.04,49.68 -38.29,138.37 434.02,487.87 431.07,487.87 -13.6,0 -1267.12,-594.11 -244.34,-665.71 947.11,-66.31 6048.82,396.03 6804.39,241.98 467.48,-95.32 898.79,-413.21 898.79,-889.35 0,-605.93 591.43,-1322.04 1775.75,-2148.3 231.94,-163.8 392.85,-246.43 482.72,-246.43 91.32,0 136.26,73.92 136.26,220.33 0,159.46 -140.61,561 -424.74,1206.06l-178.3 391.39 237.74 -305.85c323.26,-442.13 681.3,-823.38 1075.6,-1146.64 392.83,-323.26 736.39,-484.16 1030.65,-484.16 471.12,0 705.95,445.02 705.95,1333.63 0,1046.6 -397.17,2055.51 -1190.1,3023.84 1330.71,-402.98 2177.27,-703.05 2539.68,-900.2 34.79,-17.39 55.09,-26.09 59.43,-26.09 34.79,0 52.18,20.3 52.18,59.44 0,28.99 -23.19,50.74 -68.13,68.13 -397.19,214.54 -1306.08,540.69 -2726.68,977.02 -492.85,559.54 -1042.26,1019.06 -1648.19,1375.66 -605.92,356.61 -1081.39,534.9 -1426.39,534.9 -284.13,0 -424.73,-76.83 -424.73,-229.03 0,-237.73 304.41,-539.25 913.23,-904.54 608.84,-365.3 1385.82,-661.02 2330.95,-887.16 872.66,-1036.46 1307.54,-2107.7 1307.54,-3210.84 0,-634.93 -158.01,-952.39 -475.48,-952.39 -424.72,0 -1058.19,516.06 -1901.86,1546.72zm5885.36 4042.91c-526.21,401.54 -965.43,837.87 -1316.23,1307.54 -350.81,471.11 -527.65,866.85 -527.65,1190.1 0,50.74 20.28,75.39 60.87,75.39 123.22,0 356.6,-249.33 695.8,-750.89 339.21,-501.56 701.61,-1108.94 1087.21,-1822.14zm1036.45 -2165.69c187,-463.87 279.77,-787.12 279.77,-968.32 0,-85.54 23.19,-158.02 68.13,-217.45 44.95,-59.43 92.78,-88.42 144.97,-88.42 95.67,0 143.5,82.63 143.5,246.43 0,555.2 -342.1,1458.29 -1027.76,2709.28 453.72,-226.13 950.93,-462.41 1491.63,-708.84 540.69,-246.44 1091.81,-446.58 1596,-717.55 1625.25,-873.51 3684.13,-207.26 6515.58,-457.82 440.39,-38.97 72.85,76.15 1197.01,-94.61 28.64,-4.35 42.03,20.3 42.03,59.43 0,198.55 -297.51,134.16 -1248.16,191.66 -1796.19,108.65 -3770.81,-153.19 -4953.47,-55.43 -610.58,50.48 -1460.36,430.28 -1557.34,471.29 -555.17,234.82 -1108.94,481.26 -1664.13,737.85 -555.19,258.02 -1062.56,511.69 -1520.62,761.02 -436.33,792.93 -882.8,1493.08 -1342.32,2101.92 -458.07,608.83 -781.33,913.24 -968.33,913.24 -118.87,0 -178.3,-73.93 -178.3,-220.35 0,-872.65 697.26,-1793.14 2090.32,-2761.46 243.52,-452.28 481.26,-936.44 713.19,-1452.5 -418.93,481.26 -911.8,721.91 -1478.58,721.91 -327.61,0 -574.04,-101.48 -739.3,-304.43 -163.8,-204.39 -244.98,-476.91 -244.98,-816.11 0,-356.6 85.53,-745.1 258.03,-1164.02 172.51,-418.93 401.54,-810.32 684.21,-1175.62 282.67,-365.3 637.82,-671.17 1065.45,-917.6 427.63,-246.42 868.3,-369.64 1320.58,-369.64 385.59,0 578.39,178.29 578.39,534.9 0,91.32 -31.89,215.99 -94.24,373.99 -62.32,158 -137.7,237.74 -229.02,237.74 -44.94,0 -82.63,-15.95 -114.52,-46.39 -30.44,-31.89 -46.39,-69.58 -46.39,-114.52 0,-17.39 29,-89.87 88.43,-217.44 59.43,-127.56 89.87,-239.19 89.87,-334.86 0,-175.39 -104.37,-263.82 -314.56,-263.82 -339.2,0 -666.81,73.93 -981.37,221.79 -313.11,146.4 -584.19,342.1 -810.32,585.63 -226.15,243.53 -424.74,513.16 -594.34,810.33 -171.05,298.61 -297.16,600.13 -382.7,904.54 -85.52,305.86 -127.56,595.78 -127.56,866.86 0,311.66 78.28,560.98 233.39,747.98 156.56,187 392.84,279.78 708.84,279.78 192.8,0 408.8,-89.87 646.52,-271.08 237.74,-181.2 458.08,-427.63 662.47,-739.29z"/>
   <polygon fill="#57B79D" stroke="#FEFEFE" stroke-width="20" stroke-miterlimit="22.9256" points="22596.96,5763.15 22702.1,5798.29 22603.2,5874.51 22704.66,6018.96 22568.4,6003.58 22609.56,6372.54 22377.95,6048.08 22305.06,6104.26 22282.18,5985.11 22147.16,5985.11 22203.74,5895.12 22020.84,5795.79 22211.54,5750.45 22126.09,5536.63 22352.09,5659.15 22406.32,5572.89 22464.05,5664.72 22678.76,5562.69 "/>
   <polygon fill="#57B79D" stroke="#FEFEFE" stroke-width="20" stroke-miterlimit="22.9256" points="6290.98,13181.38 6304.61,13598.15 6150.63,13198.43 5976.23,13338.68 5984.48,13165.02 5521.11,13247.46 5912.51,12927.76 5723.09,12785.1 5984.3,12801.42 5873.19,12493.56 6091.69,12694.78 6193.3,12221.55 6275.34,12692.74 6538.8,12567.06 6402.41,12863.04 6684.52,12920.06 6404.58,13005.13 6551.32,13268.36 "/>
   <path fill="#57B79D" d="M6156.94 7284.91c188.63,0 341.53,144.86 341.53,323.56 0,178.69 -152.9,323.56 -341.53,323.56 -188.63,0 -341.54,-144.87 -341.54,-323.56 0,-178.7 152.91,-323.56 341.54,-323.56z"/>
   <path fill="#57B79D" d="M22317.24 11455.28c94.31,0 170.76,72.42 170.76,161.78 0,89.34 -76.45,161.78 -170.76,161.78 -94.31,0 -170.77,-72.44 -170.77,-161.78 0,-89.36 76.46,-161.78 170.77,-161.78z"/>
   <path fill="#57B79D" d="M22712.69 12411.78c134.02,0 242.67,102.93 242.67,229.9 0,126.97 -108.65,229.89 -242.67,229.89 -134.02,0 -242.67,-102.92 -242.67,-229.89 0,-126.97 108.65,-229.9 242.67,-229.9z"/>
   <path fill="#57B79D" d="M21045.16 15320.76c94.31,0 170.76,72.44 170.76,161.78 0,89.36 -76.45,161.78 -170.76,161.78 -94.32,0 -170.78,-72.42 -170.78,-161.78 0,-89.34 76.46,-161.78 170.78,-161.78z"/>
   <path fill="#57B79D" d="M21804.92 13648.33c193.6,0 350.53,148.68 350.53,332.08 0,183.41 -156.93,332.08 -350.53,332.08 -193.61,0 -350.53,-148.67 -350.53,-332.08 0,-183.4 156.92,-332.08 350.53,-332.08z"/>
   <path fill="#57B79D" d="M7666.92 13603.87c193.6,0 350.53,148.68 350.53,332.08 0,183.41 -156.93,332.08 -350.53,332.08 -193.6,0 -350.53,-148.67 -350.53,-332.08 0,-183.4 156.93,-332.08 350.53,-332.08z"/>
   <path fill="#57B79D" d="M21256.67 4112.62c193.6,0 350.53,148.68 350.53,332.08 0,183.41 -156.93,332.07 -350.53,332.07 -193.61,0 -350.53,-148.66 -350.53,-332.07 0,-183.4 156.92,-332.08 350.53,-332.08z"/>
   <path fill="#57B79D" d="M23422.78 8103.79c193.6,0 350.53,148.68 350.53,332.08 0,183.41 -156.93,332.08 -350.53,332.08 -193.61,0 -350.53,-148.67 -350.53,-332.08 0,-183.4 156.92,-332.08 350.53,-332.08z"/>
   <path fill="#57B79D" d="M7289.42 4669.89c193.6,0 350.53,148.68 350.53,332.08 0,183.41 -156.93,332.08 -350.53,332.08 -193.6,0 -350.53,-148.67 -350.53,-332.08 0,-183.4 156.93,-332.08 350.53,-332.08z"/>
   <path fill="#57B79D" d="M6408.61 11167.68c188.63,0 341.54,144.86 341.54,323.55 0,178.7 -152.91,323.56 -341.54,323.56 -188.63,0 -341.53,-144.86 -341.53,-323.56 0,-178.69 152.9,-323.55 341.53,-323.55z"/>
   <path fill="#57B79D" d="M22622.83 7356.8c188.63,0 341.54,144.86 341.54,323.56 0,178.7 -152.91,323.56 -341.54,323.56 -188.62,0 -341.53,-144.86 -341.53,-323.56 0,-178.7 152.91,-323.56 341.53,-323.56z"/>
   <path fill="#57B79D" d="M14129.23 921.51c188.63,0 341.53,144.86 341.53,323.56 0,178.69 -152.9,323.56 -341.53,323.56 -188.63,0 -341.54,-144.87 -341.54,-323.56 0,-178.7 152.91,-323.56 341.54,-323.56z"/>
   <path fill="#57B79D" d="M23177.02 10535.07c188.63,0 341.54,144.86 341.54,323.56 0,178.7 -152.91,323.56 -341.54,323.56 -188.63,0 -341.53,-144.86 -341.53,-323.56 0,-178.7 152.9,-323.56 341.53,-323.56z"/>
   <path fill="#57B79D" d="M6554.64 5728.4c188.63,0 341.54,144.86 341.54,323.56 0,178.69 -152.91,323.56 -341.54,323.56 -188.62,0 -341.53,-144.87 -341.53,-323.56 0,-178.7 152.91,-323.56 341.53,-323.56z"/>
   <path fill="#57B79D" stroke="#86CEB9" stroke-width="7.62" stroke-miterlimit="22.9256" d="M6925.45 14632.67c94.31,0 170.76,72.43 170.76,161.77 0,89.36 -76.45,161.78 -170.76,161.78 -94.32,0 -170.78,-72.42 -170.78,-161.78 0,-89.34 76.46,-161.77 170.78,-161.77z"/>
   <path fill="#57B79D" d="M8462.39 15387.62c94.32,0 170.78,72.43 170.78,161.78 0,89.35 -76.46,161.77 -170.78,161.77 -94.31,0 -170.76,-72.42 -170.76,-161.77 0,-89.35 76.45,-161.78 170.76,-161.78z"/>
   <path fill="#57B79D" d="M17463.76 1155.18c94.31,0 170.76,72.43 170.76,161.78 0,89.34 -76.45,161.78 -170.76,161.78 -94.32,0 -170.78,-72.44 -170.78,-161.78 0,-89.35 76.46,-161.78 170.78,-161.78z"/>
   <path fill="#57B79D" d="M18856.9 2125.82c94.31,0 170.76,72.42 170.76,161.78 0,89.34 -76.45,161.78 -170.76,161.78 -94.32,0 -170.78,-72.44 -170.78,-161.78 0,-89.36 76.46,-161.78 170.78,-161.78z"/>
   <path fill="#57B79D" d="M19315.29 3222.36c94.31,0 170.76,72.42 170.76,161.78 0,89.34 -76.45,161.78 -170.76,161.78 -94.31,0 -170.77,-72.44 -170.77,-161.78 0,-89.36 76.46,-161.78 170.77,-161.78z"/>
   <path fill="#57B79D" d="M8098.35 3671.76c94.32,0 170.78,72.42 170.78,161.77 0,89.35 -76.46,161.78 -170.78,161.78 -94.31,0 -170.76,-72.43 -170.76,-161.78 0,-89.35 76.45,-161.77 170.76,-161.77z"/>
   <polygon fill="#57B79D" stroke="#FEFEFE" stroke-width="20" stroke-miterlimit="22.9256" points="11569.12,1669.19 11840.81,1352.85 11684.08,1751.5 11907.4,1766.04 11783.93,1888.44 12181.12,2140.91 11676.58,2111.93 11719.74,2345.11 11538.27,2156.5 11412.04,2458.48 11387.05,2162.5 10992.28,2442.54 11250.34,2039.86 10971.23,1954.38 11271.82,1828.47 11102.47,1595.74 11366.27,1722.29 11436.07,1429.12 "/>
   <polygon fill="#57B79D" stroke="#FEFEFE" stroke-width="20" stroke-miterlimit="22.9256" points="20079.06,15964.37 20061.48,16104.57 19949.72,15998.96 19802.97,16160.83 19790.33,15986.38 19366.4,16126.67 19695.18,15758.43 19612.8,15680.59 19747.54,15623.28 19717.13,15454.08 19835.53,15503.34 19910.95,15250.27 20007.15,15478.34 20238.95,15319.85 20146.01,15632.51 20259.5,15679.73 20164.69,15774.14 20332.86,16018.67 "/>
   <path fill="#57B79D" d="M5590.72 10170.06c94.32,0 170.76,72.42 170.76,161.78 0,89.34 -76.44,161.77 -170.76,161.77 -94.31,0 -170.77,-72.43 -170.77,-161.77 0,-89.36 76.46,-161.78 170.77,-161.78z"/>
   <path fill="#57B79D" d="M7235.49 6350.16c94.31,0 170.76,72.42 170.76,161.78 0,89.34 -76.45,161.78 -170.76,161.78 -94.32,0 -170.78,-72.44 -170.78,-161.78 0,-89.36 76.46,-161.78 170.78,-161.78z"/>
   <polygon fill="#57B79D" stroke="#57B79D" stroke-width="20" stroke-miterlimit="22.9256" points="15656.52,1597.3 15515.23,1598.87 15604.73,1473.83 15424.49,1350.36 15595.62,1314.22 15399.22,913.18 15808.58,1189.07 15901.52,908.18 15949.59,1222.67 16234.45,1061.76 16080.33,1293.6 16341.28,1334.06 16128.34,1460.25 16316.75,1668.44 15994.39,1618.7 15971.96,1854.38 15856.59,1656.39 15574.18,1968.46 "/>
   <path fill="#57B79D" d="M17499.74 1994.84c134.02,0 242.67,102.93 242.67,229.9 0,126.96 -108.65,229.89 -242.67,229.89 -134.02,0 -242.67,-102.93 -242.67,-229.89 0,-126.97 108.65,-229.9 242.67,-229.9z"/>
   <path fill="#57B79D" d="M9235.4 3230.85c134.02,0 242.67,102.93 242.67,229.9 0,126.96 -108.65,229.89 -242.67,229.89 -134.02,0 -242.67,-102.93 -242.67,-229.89 0,-126.97 108.65,-229.9 242.67,-229.9z"/>
   <path fill="#57B79D" d="M7532.13 12226.89c134.02,0 242.67,102.93 242.67,229.9 0,126.96 -108.65,229.89 -242.67,229.89 -134.02,0 -242.67,-102.93 -242.67,-229.89 0,-126.97 108.65,-229.9 242.67,-229.9z"/>
   <path fill="#57B79D" d="M12709.17 772.49c134.02,0 242.67,102.93 242.67,229.9 0,126.96 -108.65,229.89 -242.67,229.89 -134.02,0 -242.67,-102.93 -242.67,-229.89 0,-126.97 108.65,-229.9 242.67,-229.9z"/>
   <polygon fill="#57B79D" stroke="#FEFEFE" stroke-width="20" stroke-miterlimit="22.9256" points="20386.47,3335.49 20181.8,3349.17 20375.74,3266.78 20303.87,3183.39 20389.39,3184.53 20341.1,2958.11 20504.83,3145.18 20571.79,3049.67 20568.14,3178.37 20717.63,3118.59 20622.36,3229.37 20856.71,3271.41 20626.44,3319.63 20692.63,3447.05 20544.84,3384.95 20521.53,3524.6 20475.02,3388.39 20348.06,3464.94 "/>
   <path fill="#57B79D" d="M10152.17 2247.85c193.6,0 350.53,148.68 350.53,332.08 0,183.41 -156.93,332.08 -350.53,332.08 -193.6,0 -350.53,-148.67 -350.53,-332.08 0,-183.4 156.93,-332.08 350.53,-332.08z"/>
  </g>
 </g>
</svg>
